# xmcd
#
# Track frame offsets:
#	150
#	10912
#	25080
#	37692
#	52080
#	63795
#	76925
#	87910
#	99717
#	112575
#	127920
#	139120
#
# Disc length: 2061 seconds
#
# Revision: 2
# Processed by: cddbd v1.5.2PL0 Copyright (c) Steve Scherf et al.
# Submitted via: audiograbber 1.83.01
#
DISCID=85080b0c
DTITLE=Blind Davis Buescher - ... And The Blind Will see
DYEAR=1900
DGENRE=Country
TTITLE0=Jambalaya
TTITLE1=Chattanooga shoeshine boy
TTITLE2=Lovesick blues
TTITLE3=Over the rainbow
TTITLE4=Memphis
TTITLE5=Thirty nine and holding
TTITLE6=It had to be you
TTITLE7=Hey good looking
TTITLE8=Waiting for a train
TTITLE9=Honky Tonk blues
TTITLE10=That'll be the day
TTITLE11=Right or wrong
EXTD=
EXTT0=
EXTT1=
EXTT2=
EXTT3=
EXTT4=
EXTT5=
EXTT6=
EXTT7=
EXTT8=
EXTT9=
EXTT10=
EXTT11=
PLAYORDER=
